<svg width="788" height="366" viewBox="0 0 788 366" fill="none" xmlns="http://www.w3.org/2000/svg">
<mask id="mask0_1_609" style="mask-type:luminance" maskUnits="userSpaceOnUse" x="125" y="-474" width="775" height="643">
<path d="M831.517 17.16C754.695 107.6 654.971 157.503 532.344 166.87C409.717 176.238 299.353 131.017 201.252 31.2105C103.151 -68.5965 100.085 -173.087 192.055 -282.261C284.025 -391.435 405.75 -454.259 557.23 -470.732C708.71 -487.205 811.5 -432.618 865.6 -306.971C919.7 -181.324 908.339 -73.28 831.517 17.16Z" fill="white"/>
</mask>
<g mask="url(#mask0_1_609)">
<path d="M831.517 17.16C754.695 107.6 654.971 157.503 532.344 166.87C409.717 176.238 299.353 131.017 201.252 31.2105C103.151 -68.5965 100.085 -173.087 192.055 -282.261C284.025 -391.435 405.75 -454.259 557.23 -470.732C708.71 -487.205 811.5 -432.618 865.6 -306.971C919.7 -181.324 908.339 -73.28 831.517 17.16Z" fill="black"/>
</g>
</svg>
