<svg width="790" height="607" viewBox="0 0 790 607" fill="none" xmlns="http://www.w3.org/2000/svg">
<mask id="mask0_1_583" style="mask-type:luminance" maskUnits="userSpaceOnUse" x="125" y="129" width="775" height="643">
<path d="M831.517 620.16C754.695 710.6 654.971 760.503 532.344 769.87C409.717 779.238 299.353 734.017 201.252 634.21C103.151 534.403 100.085 429.913 192.055 320.739C284.025 211.565 405.75 148.741 557.23 132.268C708.71 115.795 811.5 170.382 865.6 296.029C919.7 421.676 908.339 529.72 831.517 620.16Z" fill="white"/>
</mask>
<g mask="url(#mask0_1_583)">
<path d="M831.517 620.16C754.695 710.6 654.971 760.503 532.344 769.87C409.717 779.238 299.353 734.017 201.252 634.21C103.151 534.403 100.085 429.913 192.055 320.739C284.025 211.565 405.75 148.741 557.23 132.268C708.71 115.795 811.5 170.382 865.6 296.029C919.7 421.676 908.339 529.72 831.517 620.16Z" fill="black"/>
</g>
</svg>
